<mxfile host="app.diagrams.net" modified="2021-03-11T10:08:39.351Z" agent="5.0 (Windows NT 10.0; Win64; x64) AppleWebKit/537.36 (KHTML, like Gecko) Chrome/90.0.4430.19 Safari/537.36" etag="T1hmR9Da1cQSILxQsBo4" version="14.4.4" type="github">
  <diagram id="QZb-rnxOGKUjFUGEHqm6" name="Page-1">
    <mxGraphModel dx="1695" dy="482" grid="1" gridSize="10" guides="1" tooltips="1" connect="1" arrows="1" fold="1" page="1" pageScale="1" pageWidth="827" pageHeight="1169" math="0" shadow="0">
      <root>
        <mxCell id="0" />
        <mxCell id="1" parent="0" />
        <mxCell id="GqhLP2-lh5Dz4jH6dSCY-10" value="" style="edgeStyle=orthogonalEdgeStyle;rounded=0;orthogonalLoop=1;jettySize=auto;html=1;" edge="1" parent="1" source="GqhLP2-lh5Dz4jH6dSCY-2" target="GqhLP2-lh5Dz4jH6dSCY-9">
          <mxGeometry relative="1" as="geometry" />
        </mxCell>
        <mxCell id="GqhLP2-lh5Dz4jH6dSCY-2" value="Bắt đầu" style="ellipse;whiteSpace=wrap;html=1;" vertex="1" parent="1">
          <mxGeometry x="280" y="150" width="120" height="80" as="geometry" />
        </mxCell>
        <mxCell id="GqhLP2-lh5Dz4jH6dSCY-7" value="" style="edgeStyle=orthogonalEdgeStyle;rounded=0;orthogonalLoop=1;jettySize=auto;html=1;" edge="1" parent="1" source="GqhLP2-lh5Dz4jH6dSCY-4" target="GqhLP2-lh5Dz4jH6dSCY-6">
          <mxGeometry relative="1" as="geometry" />
        </mxCell>
        <mxCell id="GqhLP2-lh5Dz4jH6dSCY-4" value="t = Cảm biến mực nước" style="whiteSpace=wrap;html=1;" vertex="1" parent="1">
          <mxGeometry x="280" y="370" width="120" height="60" as="geometry" />
        </mxCell>
        <mxCell id="GqhLP2-lh5Dz4jH6dSCY-16" value="Yes" style="edgeStyle=orthogonalEdgeStyle;rounded=0;orthogonalLoop=1;jettySize=auto;html=1;" edge="1" parent="1" source="GqhLP2-lh5Dz4jH6dSCY-6" target="GqhLP2-lh5Dz4jH6dSCY-15">
          <mxGeometry relative="1" as="geometry" />
        </mxCell>
        <mxCell id="GqhLP2-lh5Dz4jH6dSCY-24" value="No" style="edgeStyle=orthogonalEdgeStyle;rounded=0;orthogonalLoop=1;jettySize=auto;html=1;" edge="1" parent="1" source="GqhLP2-lh5Dz4jH6dSCY-6" target="GqhLP2-lh5Dz4jH6dSCY-23">
          <mxGeometry relative="1" as="geometry" />
        </mxCell>
        <mxCell id="GqhLP2-lh5Dz4jH6dSCY-6" value="d &amp;gt; t" style="rhombus;whiteSpace=wrap;html=1;" vertex="1" parent="1">
          <mxGeometry x="300" y="470" width="80" height="80" as="geometry" />
        </mxCell>
        <mxCell id="GqhLP2-lh5Dz4jH6dSCY-12" value="" style="edgeStyle=orthogonalEdgeStyle;rounded=0;orthogonalLoop=1;jettySize=auto;html=1;" edge="1" parent="1" source="GqhLP2-lh5Dz4jH6dSCY-9" target="GqhLP2-lh5Dz4jH6dSCY-4">
          <mxGeometry relative="1" as="geometry" />
        </mxCell>
        <mxCell id="GqhLP2-lh5Dz4jH6dSCY-9" value="d = 10cm&lt;br&gt;( mực nước tối thiểu )&lt;br&gt;D = 1.5m&lt;br&gt;( Mực nước tối đa )" style="whiteSpace=wrap;html=1;" vertex="1" parent="1">
          <mxGeometry x="280" y="270" width="120" height="60" as="geometry" />
        </mxCell>
        <mxCell id="GqhLP2-lh5Dz4jH6dSCY-18" value="No" style="edgeStyle=orthogonalEdgeStyle;rounded=0;orthogonalLoop=1;jettySize=auto;html=1;" edge="1" parent="1" source="GqhLP2-lh5Dz4jH6dSCY-15" target="GqhLP2-lh5Dz4jH6dSCY-17">
          <mxGeometry relative="1" as="geometry" />
        </mxCell>
        <mxCell id="GqhLP2-lh5Dz4jH6dSCY-20" value="Yes" style="edgeStyle=orthogonalEdgeStyle;rounded=0;orthogonalLoop=1;jettySize=auto;html=1;" edge="1" parent="1" source="GqhLP2-lh5Dz4jH6dSCY-15" target="GqhLP2-lh5Dz4jH6dSCY-19">
          <mxGeometry relative="1" as="geometry" />
        </mxCell>
        <mxCell id="GqhLP2-lh5Dz4jH6dSCY-15" value="máy bơm đang bật ?" style="rhombus;whiteSpace=wrap;html=1;" vertex="1" parent="1">
          <mxGeometry x="300" y="600" width="80" height="80" as="geometry" />
        </mxCell>
        <mxCell id="GqhLP2-lh5Dz4jH6dSCY-27" style="edgeStyle=orthogonalEdgeStyle;rounded=0;orthogonalLoop=1;jettySize=auto;html=1;entryX=0.5;entryY=1;entryDx=0;entryDy=0;" edge="1" parent="1" source="GqhLP2-lh5Dz4jH6dSCY-17" target="GqhLP2-lh5Dz4jH6dSCY-19">
          <mxGeometry relative="1" as="geometry" />
        </mxCell>
        <mxCell id="GqhLP2-lh5Dz4jH6dSCY-17" value="Bật máy bơm" style="whiteSpace=wrap;html=1;" vertex="1" parent="1">
          <mxGeometry x="280" y="730" width="120" height="60" as="geometry" />
        </mxCell>
        <mxCell id="GqhLP2-lh5Dz4jH6dSCY-28" style="edgeStyle=orthogonalEdgeStyle;rounded=0;orthogonalLoop=1;jettySize=auto;html=1;entryX=1;entryY=0.5;entryDx=0;entryDy=0;" edge="1" parent="1" source="GqhLP2-lh5Dz4jH6dSCY-19" target="GqhLP2-lh5Dz4jH6dSCY-4">
          <mxGeometry relative="1" as="geometry">
            <Array as="points">
              <mxPoint x="500" y="400" />
            </Array>
          </mxGeometry>
        </mxCell>
        <mxCell id="GqhLP2-lh5Dz4jH6dSCY-19" value="Delay 15s" style="whiteSpace=wrap;html=1;" vertex="1" parent="1">
          <mxGeometry x="440" y="610" width="120" height="60" as="geometry" />
        </mxCell>
        <mxCell id="GqhLP2-lh5Dz4jH6dSCY-33" value="Yes" style="edgeStyle=orthogonalEdgeStyle;rounded=0;orthogonalLoop=1;jettySize=auto;html=1;" edge="1" parent="1" source="GqhLP2-lh5Dz4jH6dSCY-23" target="GqhLP2-lh5Dz4jH6dSCY-32">
          <mxGeometry relative="1" as="geometry" />
        </mxCell>
        <mxCell id="GqhLP2-lh5Dz4jH6dSCY-39" value="No" style="edgeStyle=orthogonalEdgeStyle;rounded=0;orthogonalLoop=1;jettySize=auto;html=1;" edge="1" parent="1" source="GqhLP2-lh5Dz4jH6dSCY-23" target="GqhLP2-lh5Dz4jH6dSCY-36">
          <mxGeometry relative="1" as="geometry" />
        </mxCell>
        <mxCell id="GqhLP2-lh5Dz4jH6dSCY-23" value="t &amp;gt;= D" style="rhombus;whiteSpace=wrap;html=1;" vertex="1" parent="1">
          <mxGeometry x="140" y="470" width="80" height="80" as="geometry" />
        </mxCell>
        <mxCell id="GqhLP2-lh5Dz4jH6dSCY-35" value="Yes" style="edgeStyle=orthogonalEdgeStyle;rounded=0;orthogonalLoop=1;jettySize=auto;html=1;" edge="1" parent="1" source="GqhLP2-lh5Dz4jH6dSCY-32" target="GqhLP2-lh5Dz4jH6dSCY-34">
          <mxGeometry relative="1" as="geometry" />
        </mxCell>
        <mxCell id="GqhLP2-lh5Dz4jH6dSCY-40" value="No" style="edgeStyle=orthogonalEdgeStyle;rounded=0;orthogonalLoop=1;jettySize=auto;html=1;entryX=0;entryY=0.75;entryDx=0;entryDy=0;" edge="1" parent="1" source="GqhLP2-lh5Dz4jH6dSCY-32" target="GqhLP2-lh5Dz4jH6dSCY-36">
          <mxGeometry relative="1" as="geometry">
            <Array as="points">
              <mxPoint x="20" y="415" />
            </Array>
          </mxGeometry>
        </mxCell>
        <mxCell id="GqhLP2-lh5Dz4jH6dSCY-32" value="máy bơm đang bật" style="rhombus;whiteSpace=wrap;html=1;" vertex="1" parent="1">
          <mxGeometry x="-20" y="470" width="80" height="80" as="geometry" />
        </mxCell>
        <mxCell id="GqhLP2-lh5Dz4jH6dSCY-41" style="edgeStyle=orthogonalEdgeStyle;rounded=0;orthogonalLoop=1;jettySize=auto;html=1;entryX=0;entryY=0.25;entryDx=0;entryDy=0;" edge="1" parent="1" source="GqhLP2-lh5Dz4jH6dSCY-34" target="GqhLP2-lh5Dz4jH6dSCY-36">
          <mxGeometry relative="1" as="geometry">
            <Array as="points">
              <mxPoint x="-150" y="385" />
            </Array>
          </mxGeometry>
        </mxCell>
        <mxCell id="GqhLP2-lh5Dz4jH6dSCY-34" value="Tắt máy bơm" style="whiteSpace=wrap;html=1;" vertex="1" parent="1">
          <mxGeometry x="-210" y="480" width="120" height="60" as="geometry" />
        </mxCell>
        <mxCell id="GqhLP2-lh5Dz4jH6dSCY-38" style="edgeStyle=orthogonalEdgeStyle;rounded=0;orthogonalLoop=1;jettySize=auto;html=1;entryX=0;entryY=0.5;entryDx=0;entryDy=0;" edge="1" parent="1" source="GqhLP2-lh5Dz4jH6dSCY-36" target="GqhLP2-lh5Dz4jH6dSCY-4">
          <mxGeometry relative="1" as="geometry" />
        </mxCell>
        <mxCell id="GqhLP2-lh5Dz4jH6dSCY-36" value="delay 15s" style="whiteSpace=wrap;html=1;" vertex="1" parent="1">
          <mxGeometry x="120" y="370" width="120" height="60" as="geometry" />
        </mxCell>
        <mxCell id="GqhLP2-lh5Dz4jH6dSCY-42" value="" style="edgeStyle=orthogonalEdgeStyle;rounded=0;orthogonalLoop=1;jettySize=auto;html=1;" edge="1" source="GqhLP2-lh5Dz4jH6dSCY-43" target="GqhLP2-lh5Dz4jH6dSCY-50" parent="1">
          <mxGeometry relative="1" as="geometry" />
        </mxCell>
        <mxCell id="GqhLP2-lh5Dz4jH6dSCY-43" value="Bắt đầu" style="ellipse;whiteSpace=wrap;html=1;" vertex="1" parent="1">
          <mxGeometry x="330" y="990" width="120" height="80" as="geometry" />
        </mxCell>
        <mxCell id="GqhLP2-lh5Dz4jH6dSCY-68" style="edgeStyle=orthogonalEdgeStyle;rounded=0;orthogonalLoop=1;jettySize=auto;html=1;entryX=0.5;entryY=0;entryDx=0;entryDy=0;" edge="1" parent="1" source="GqhLP2-lh5Dz4jH6dSCY-45" target="GqhLP2-lh5Dz4jH6dSCY-63">
          <mxGeometry relative="1" as="geometry" />
        </mxCell>
        <mxCell id="GqhLP2-lh5Dz4jH6dSCY-45" value="t = Cảm biến mực nước" style="whiteSpace=wrap;html=1;" vertex="1" parent="1">
          <mxGeometry x="330" y="1220" width="120" height="60" as="geometry" />
        </mxCell>
        <mxCell id="GqhLP2-lh5Dz4jH6dSCY-79" value="No" style="edgeStyle=orthogonalEdgeStyle;rounded=0;orthogonalLoop=1;jettySize=auto;html=1;entryX=0.25;entryY=1;entryDx=0;entryDy=0;" edge="1" parent="1" source="GqhLP2-lh5Dz4jH6dSCY-48" target="GqhLP2-lh5Dz4jH6dSCY-67">
          <mxGeometry relative="1" as="geometry" />
        </mxCell>
        <mxCell id="GqhLP2-lh5Dz4jH6dSCY-82" value="Yes" style="edgeStyle=orthogonalEdgeStyle;rounded=0;orthogonalLoop=1;jettySize=auto;html=1;entryX=0;entryY=0.5;entryDx=0;entryDy=0;" edge="1" parent="1" source="GqhLP2-lh5Dz4jH6dSCY-48" target="GqhLP2-lh5Dz4jH6dSCY-55">
          <mxGeometry relative="1" as="geometry">
            <Array as="points">
              <mxPoint x="390" y="1590" />
            </Array>
          </mxGeometry>
        </mxCell>
        <mxCell id="GqhLP2-lh5Dz4jH6dSCY-48" value="d &amp;gt; t" style="rhombus;whiteSpace=wrap;html=1;" vertex="1" parent="1">
          <mxGeometry x="350" y="1490" width="80" height="80" as="geometry" />
        </mxCell>
        <mxCell id="GqhLP2-lh5Dz4jH6dSCY-49" value="" style="edgeStyle=orthogonalEdgeStyle;rounded=0;orthogonalLoop=1;jettySize=auto;html=1;" edge="1" source="GqhLP2-lh5Dz4jH6dSCY-50" target="GqhLP2-lh5Dz4jH6dSCY-45" parent="1">
          <mxGeometry relative="1" as="geometry" />
        </mxCell>
        <mxCell id="GqhLP2-lh5Dz4jH6dSCY-50" value="d = 10cm&lt;br&gt;( mực nước tối thiểu )&lt;br&gt;D = 1.5m&lt;br&gt;( Mực nước tối đa )" style="whiteSpace=wrap;html=1;" vertex="1" parent="1">
          <mxGeometry x="330" y="1110" width="120" height="60" as="geometry" />
        </mxCell>
        <mxCell id="GqhLP2-lh5Dz4jH6dSCY-74" style="edgeStyle=orthogonalEdgeStyle;rounded=0;orthogonalLoop=1;jettySize=auto;html=1;entryX=0.5;entryY=1;entryDx=0;entryDy=0;" edge="1" parent="1" source="GqhLP2-lh5Dz4jH6dSCY-55" target="GqhLP2-lh5Dz4jH6dSCY-67">
          <mxGeometry relative="1" as="geometry" />
        </mxCell>
        <mxCell id="GqhLP2-lh5Dz4jH6dSCY-55" value="Bật máy bơm" style="whiteSpace=wrap;html=1;" vertex="1" parent="1">
          <mxGeometry x="490" y="1560" width="120" height="60" as="geometry" />
        </mxCell>
        <mxCell id="GqhLP2-lh5Dz4jH6dSCY-70" value="Yes" style="edgeStyle=orthogonalEdgeStyle;rounded=0;orthogonalLoop=1;jettySize=auto;html=1;entryX=0.5;entryY=0;entryDx=0;entryDy=0;" edge="1" parent="1" source="GqhLP2-lh5Dz4jH6dSCY-60" target="GqhLP2-lh5Dz4jH6dSCY-65">
          <mxGeometry relative="1" as="geometry">
            <mxPoint x="540" y="1460" as="targetPoint" />
          </mxGeometry>
        </mxCell>
        <mxCell id="GqhLP2-lh5Dz4jH6dSCY-81" value="No" style="edgeStyle=orthogonalEdgeStyle;rounded=0;orthogonalLoop=1;jettySize=auto;html=1;entryX=0.25;entryY=0;entryDx=0;entryDy=0;" edge="1" parent="1" source="GqhLP2-lh5Dz4jH6dSCY-60" target="GqhLP2-lh5Dz4jH6dSCY-67">
          <mxGeometry relative="1" as="geometry" />
        </mxCell>
        <mxCell id="GqhLP2-lh5Dz4jH6dSCY-60" value="t &amp;gt;= D" style="rhombus;whiteSpace=wrap;html=1;" vertex="1" parent="1">
          <mxGeometry x="510" y="1314" width="80" height="80" as="geometry" />
        </mxCell>
        <mxCell id="GqhLP2-lh5Dz4jH6dSCY-69" value="Yes" style="edgeStyle=orthogonalEdgeStyle;rounded=0;orthogonalLoop=1;jettySize=auto;html=1;entryX=0;entryY=0.5;entryDx=0;entryDy=0;" edge="1" parent="1" source="GqhLP2-lh5Dz4jH6dSCY-63" target="GqhLP2-lh5Dz4jH6dSCY-60">
          <mxGeometry relative="1" as="geometry" />
        </mxCell>
        <mxCell id="GqhLP2-lh5Dz4jH6dSCY-71" value="No" style="edgeStyle=orthogonalEdgeStyle;rounded=0;orthogonalLoop=1;jettySize=auto;html=1;entryX=0.5;entryY=0;entryDx=0;entryDy=0;" edge="1" parent="1" source="GqhLP2-lh5Dz4jH6dSCY-63" target="GqhLP2-lh5Dz4jH6dSCY-48">
          <mxGeometry relative="1" as="geometry" />
        </mxCell>
        <mxCell id="GqhLP2-lh5Dz4jH6dSCY-63" value="máy bơm đang bật" style="rhombus;whiteSpace=wrap;html=1;" vertex="1" parent="1">
          <mxGeometry x="350" y="1314" width="80" height="80" as="geometry" />
        </mxCell>
        <mxCell id="GqhLP2-lh5Dz4jH6dSCY-80" style="edgeStyle=orthogonalEdgeStyle;rounded=0;orthogonalLoop=1;jettySize=auto;html=1;entryX=0;entryY=0.5;entryDx=0;entryDy=0;" edge="1" parent="1" source="GqhLP2-lh5Dz4jH6dSCY-65" target="GqhLP2-lh5Dz4jH6dSCY-67">
          <mxGeometry relative="1" as="geometry" />
        </mxCell>
        <mxCell id="GqhLP2-lh5Dz4jH6dSCY-65" value="Tắt máy bơm" style="whiteSpace=wrap;html=1;" vertex="1" parent="1">
          <mxGeometry x="490" y="1430" width="120" height="60" as="geometry" />
        </mxCell>
        <mxCell id="GqhLP2-lh5Dz4jH6dSCY-75" style="edgeStyle=orthogonalEdgeStyle;rounded=0;orthogonalLoop=1;jettySize=auto;html=1;entryX=1;entryY=0.5;entryDx=0;entryDy=0;" edge="1" parent="1" source="GqhLP2-lh5Dz4jH6dSCY-67" target="GqhLP2-lh5Dz4jH6dSCY-45">
          <mxGeometry relative="1" as="geometry">
            <Array as="points">
              <mxPoint x="730" y="1250" />
            </Array>
          </mxGeometry>
        </mxCell>
        <mxCell id="GqhLP2-lh5Dz4jH6dSCY-67" value="delay 15s" style="whiteSpace=wrap;html=1;" vertex="1" parent="1">
          <mxGeometry x="670" y="1430" width="120" height="60" as="geometry" />
        </mxCell>
      </root>
    </mxGraphModel>
  </diagram>
</mxfile>
